<svg width="14" height="14" viewBox="0 0 14 14" fill="none" xmlns="http://www.w3.org/2000/svg">
<path d="M6.25302 1.50193C6.43729 1.55607 6.63326 1.55599 6.8175 1.50171L11.7719 0.0420606C12.5301 -0.181315 13.2355 0.521736 13.0147 1.28067L11.5672 6.25558C11.514 6.4383 11.5141 6.63239 11.5674 6.81506L13.0145 11.7745C13.2356 12.5324 12.5324 13.2357 11.7744 13.0145L6.815 11.5675C6.63233 11.5142 6.43823 11.5141 6.25552 11.5672L1.28061 13.0148C0.521674 13.2356 -0.181376 12.5301 0.0419994 11.772L1.50165 6.81756C1.55593 6.63333 1.55601 6.43736 1.50187 6.25308L0.0417818 1.28317C-0.181246 0.524016 0.523955 -0.181185 1.28311 0.0418428L6.25302 1.50193Z" fill="#9640C1"/>
</svg>
